<svg width="35.000000" height="35.000000" viewBox="0 0 35 35" fill="none" xmlns="http://www.w3.org/2000/svg" xmlns:xlink="http://www.w3.org/1999/xlink">
	<desc>
			Created with Pixso.
	</desc>
	<defs/>
	<path id="Vector (Stroke)" d="M0 10.43C0 4.67 4.67 0 10.43 0L24.56 0C30.32 0 35 4.67 35 10.43L35 24.56C35 30.32 30.32 35 24.56 35L10.43 35C4.67 35 0 30.32 0 24.56L0 10.43ZM10.43 2.01C5.78 2.01 2.01 5.78 2.01 10.43L2.01 24.56C2.01 29.21 5.78 32.98 10.43 32.98L24.56 32.98C29.21 32.98 32.98 29.21 32.98 24.56L32.98 10.43C32.98 5.78 29.21 2.01 24.56 2.01L10.43 2.01Z" fill="#FFFFFF" fill-opacity="1.000000" fill-rule="evenodd"/>
	<path id="Vector (Stroke)" d="M17.5 10.15C13.44 10.15 10.15 13.44 10.15 17.5C10.15 21.55 13.44 24.84 17.5 24.84C21.55 24.84 24.84 21.55 24.84 17.5C24.84 13.44 21.55 10.15 17.5 10.15ZM8 17.5C8 12.25 12.25 8 17.5 8C22.74 8 27 12.25 27 17.5C27 22.74 22.74 27 17.5 27C12.25 27 8 22.74 8 17.5Z" fill="#FFFFFF" fill-opacity="1.000000" fill-rule="evenodd"/>
	<path id="Vector" d="M27 10C28.1 10 29 9.1 29 8C29 6.89 28.1 6 27 6C25.89 6 25 6.89 25 8C25 9.1 25.89 10 27 10Z" fill="#FFFFFF" fill-opacity="1.000000" fill-rule="nonzero"/>
</svg>
