<svg width="35.000000" height="35.000000" viewBox="0 0 35 35" fill="none" xmlns="http://www.w3.org/2000/svg" xmlns:xlink="http://www.w3.org/1999/xlink">
	<desc>
			Created with Pixso.
	</desc>
	<defs/>
	<path id="Vector (Stroke)" d="M0 17.5C0 7.83 7.83 0 17.5 0C27.16 0 35 7.83 35 17.5C35 27.16 27.16 35 17.5 35C14.54 35 11.75 34.26 9.31 32.96L1.22 34.97C0.88 35.05 0.52 34.95 0.27 34.7C0.03 34.44 -0.06 34.08 0.03 33.74L2.2 26C0.8 23.48 0 20.58 0 17.5ZM17.5 1.97C8.92 1.97 1.97 8.92 1.97 17.5C1.97 20.37 2.75 23.06 4.12 25.37C4.25 25.6 4.29 25.88 4.22 26.13L2.39 32.64L9.21 30.95C9.45 30.89 9.71 30.93 9.93 31.05C12.17 32.3 14.75 33.02 17.5 33.02C26.07 33.02 33.02 26.07 33.02 17.5C33.02 8.92 26.07 1.97 17.5 1.97Z" fill="#FFFFFF" fill-opacity="1.000000" fill-rule="evenodd"/>
	<path id="Vector" d="M12.47 8.9C12.21 8.89 11.91 8.88 11.62 8.88C11.32 8.88 10.84 8.99 10.43 9.43C10.03 9.87 8.88 10.93 8.88 13.08C8.88 15.24 10.47 17.32 10.69 17.61C10.91 17.9 13.82 22.32 18.26 24.22C19.32 24.67 20.15 24.94 20.79 25.14C21.85 25.47 22.82 25.42 23.58 25.31C24.43 25.19 26.2 24.25 26.57 23.23C26.94 22.21 26.94 21.33 26.83 21.15C26.72 20.97 26.43 20.86 25.98 20.64C25.54 20.42 23.36 19.36 22.95 19.22C22.55 19.07 22.25 19 21.96 19.44C21.66 19.87 20.81 20.86 20.55 21.15C20.29 21.44 20.04 21.48 19.59 21.26C19.15 21.04 17.72 20.58 16.03 19.09C14.71 17.93 13.82 16.5 13.56 16.06C13.31 15.62 13.54 15.38 13.76 15.16C13.96 14.97 14.2 14.65 14.42 14.4C14.65 14.14 14.72 13.96 14.87 13.67C15.01 13.37 14.94 13.12 14.83 12.9C14.72 12.68 13.83 10.53 13.46 9.65C13.1 8.8 12.74 8.91 12.47 8.9Z" stroke="#FFFFFF" stroke-opacity="1.000000" stroke-width="2.000000"/>
</svg>
