<svg width="51.000000" height="58.000000" viewBox="0 0 51 58" fill="none" xmlns="http://www.w3.org/2000/svg" xmlns:xlink="http://www.w3.org/1999/xlink">
	<desc>
			Created with Pixso.
	</desc>
	<defs/>
	<path id="Vector" d="M7.07 14C11.48 9.93 20.55 1.55 20.95 1.17C21.2 0.94 19.35 0.41 18.5 0.01L28 0.01C26.01 0.85 23.66 1.49 21.73 2.76C19.75 4.06 18.14 5.94 16.42 7.63C14.65 9.36 12.95 11.16 11.03 13.12C13.22 15.88 15.41 18.66 17.65 21.5C17.27 22.15 16.9 22.79 16.35 23.73C13.89 20.75 9.55 14.83 9.22 15.05C8.88 15.27 7.07 16.44 7.08 17.66C6.89 20.89 7.06 24.87 7.08 28.1C7.1 31.86 7.31 32.1 10.99 33C9.19 33 7.39 33 5.59 33C3.8 33 1.95 33 0.28 33C1.37 32.52 3.03 32.29 3.7 31.37C4.41 30.37 4.35 28.7 4.36 27.33C4.42 20.03 4.39 12.74 4.39 5.44C4.39 2.56 2.92 0.75 0 0C0 0 12.16 0 10.83 0C9.51 0 7.11 1.66 7.08 5.93C7.05 10.2 7.08 11.88 7.08 14.01L7.07 14Z" fill="#FFFFFF" fill-opacity="1.000000" fill-rule="nonzero"/>
	<path id="Vector" d="M22.4 43C23.15 47.72 25.01 51.83 29.32 54.67C33.24 57.24 37.43 57.02 42.14 56.23C44.81 55.78 46.31 55.16 46.57 52.77C46.64 52.09 46.65 51.4 46.65 50.72C46.12 46.97 45.68 46.97 41.76 46.03C41.44 46.01 41.12 45.97 40.8 45.71L51 45.71C47.36 48.73 49.63 52.7 49.24 56.56C41.63 58.01 33.94 59.44 26.77 55.06C24.76 53.84 23.02 52.05 21.61 50.23C19.23 47.14 19.47 46.22 22.4 43L22.4 43Z" fill="#FFFFFF" fill-opacity="1.000000" fill-rule="nonzero"/>
	<path id="Vector" d="M39.78 7.81C29.12 23.1 18.46 38.4 7.8 53.69C7.68 53.86 7.45 53.9 7.29 53.78C7.13 53.67 7.09 53.44 7.2 53.28C17.84 37.97 28.48 22.66 39.12 7.35C39.25 7.16 39.52 7.12 39.7 7.26C39.86 7.39 39.9 7.63 39.78 7.81Z" fill="#FFFFFF" fill-opacity="1.000000" fill-rule="nonzero"/>
	<path id="Vector" d="M36 24.46C40.01 23.58 43.85 23.87 47.46 25.99C48.04 26.32 48.54 27.31 48.67 28.07C48.97 29.92 49.02 31.82 48.99 34C46.39 26.5 42.06 25 36 24.46L36 24.46Z" fill="#FFFFFF" fill-opacity="1.000000" fill-rule="nonzero"/>
</svg>
