<svg width="37.000000" height="34.000000" viewBox="0 0 37 34" fill="none" xmlns="http://www.w3.org/2000/svg" xmlns:xlink="http://www.w3.org/1999/xlink">
	<desc>
			Created with Pixso.
	</desc>
	<defs/>
	<path id="Vector (Stroke)" d="M35.69 3.32C34.51 3.09 34.51 3.09 34.51 3.09L31.86 16.74C30.53 23.6 29.18 30.58 29.09 31.02C29.09 31.02 29.09 31.03 29.09 31.03C29.09 31.04 29.08 31.05 29.08 31.07C29.07 31.1 29.05 31.13 29.03 31.17C28.99 31.25 28.93 31.33 28.86 31.4C28.72 31.55 28.63 31.57 28.6 31.57C28.61 31.57 28.58 31.57 28.52 31.54C28.46 31.52 28.38 31.47 28.3 31.42C28.22 31.37 28.16 31.31 28.11 31.27C28.09 31.25 28.08 31.24 28.07 31.23C28.07 31.23 28.06 31.22 28.06 31.22L28.04 31.2L20.45 23.99L14.31 29.33C14.26 29.2 14.21 29.05 14.15 28.87C13.92 28.11 13.25 26.03 12.64 24.15C12.33 23.21 12.04 22.31 11.83 21.65L11.48 20.56L11.3 20.03L10.78 19.82L7.48 18.46C5.72 17.74 3.75 16.93 2.91 16.58C2.62 16.47 2.48 16.37 2.43 16.32C2.42 16.31 2.42 16.31 2.41 16.3C2.41 16.3 2.41 16.29 2.41 16.28C2.41 16.27 2.41 16.26 2.41 16.25C2.42 16.25 2.43 16.24 2.45 16.22C2.49 16.19 2.56 16.15 2.66 16.1C2.74 16.06 2.8 16.04 2.87 16C2.91 15.99 2.96 15.97 3.02 15.94C4.32 15.38 6.02 14.65 7.97 13.8C17.63 9.63 33.23 2.89 34.09 2.54L34.09 2.54C34.27 2.46 34.43 2.43 34.55 2.42C34.56 2.42 34.57 2.42 34.57 2.42C34.59 2.53 34.58 2.73 34.51 3.06L34.51 3.07L34.51 3.09L35.69 3.32ZM36.88 3.57C37.15 2.29 36.99 1 35.89 0.34C34.96 -0.22 33.87 0.01 33.19 0.29L33.64 1.41L33.19 0.29C32.29 0.65 16.61 7.42 6.97 11.59C5.04 12.43 3.35 13.16 2.07 13.71C2.05 13.72 2.03 13.73 2 13.74C1.8 13.82 1.34 14.01 0.96 14.31C0.46 14.7 0 15.34 0 16.28C0 17.02 0.29 17.61 0.73 18.04C1.12 18.44 1.61 18.68 1.99 18.83C2.83 19.18 4.8 19.98 6.56 20.71L9.35 21.85L9.53 22.4C9.74 23.06 10.04 23.96 10.34 24.9C10.95 26.79 11.62 28.85 11.84 29.59C12.09 30.4 12.35 30.94 12.63 31.29C12.77 31.48 12.93 31.63 13.11 31.75C13.21 31.81 13.31 31.86 13.41 31.9C13.41 31.9 13.42 31.9 13.42 31.9C13.66 31.99 13.9 32.03 14.12 32.03C14.5 32.03 14.81 31.92 15.01 31.83C15.11 31.78 15.19 31.73 15.25 31.69C15.28 31.67 15.31 31.66 15.33 31.64C15.34 31.63 15.35 31.63 15.36 31.62L15.37 31.61L15.38 31.61L15.38 31.6L15.38 31.6C15.38 31.6 15.38 31.6 14.64 30.64L15.38 31.6L15.41 31.58L20.38 27.27L26.34 32.93C26.35 32.93 26.36 32.94 26.37 32.96C26.4 32.99 26.44 33.03 26.5 33.08C26.6 33.17 26.75 33.3 26.93 33.42C27.27 33.65 27.87 34 28.6 34C29.49 34 30.17 33.54 30.61 33.08C31.04 32.63 31.36 32.04 31.47 31.48L31.47 31.48C31.55 31.06 32.9 24.08 34.23 17.2L36.88 3.57ZM2.42 16.24C2.42 16.24 2.42 16.24 2.42 16.25L2.42 16.24Z" fill="#FFFFFF" fill-opacity="1.000000" fill-rule="evenodd"/>
	<path id="Vector" d="M27.72 9.1C27.48 9.1 27.15 9.34 26.98 9.45C24.5 11.03 12.1 18.28 8.69 20.27C9.65 20.66 10.33 20.94 10.33 20.94C10.33 20.94 12.54 27.74 13 29.23C13.46 30.72 13.83 30.76 13.83 30.76C13.93 30.8 14.03 30.82 14.12 30.82C14.2 30.82 14.25 30.79 14.31 30.77L16.57 21.68C16.57 21.68 26.88 10.97 27.5 10.35C28 9.85 28.1 9.67 28.1 9.5C28.1 9.27 27.98 9.1 27.72 9.1Z" fill="#FFFFFF" fill-opacity="1.000000" fill-rule="nonzero"/>
</svg>
